<svg width="310" height="65" viewBox="0 0 310 65" fill="none" xmlns="http://www.w3.org/2000/svg">
<path d="M65.4432 50V15.0909H71.767V44.6989H87.142V50H65.4432Z" fill="#FBBF24"/>
<path d="M100.852 50.5284C99.193 50.5284 97.6986 50.233 96.3691 49.642C95.0509 49.0398 94.0055 48.1534 93.2327 46.983C92.4714 45.8125 92.0907 44.3693 92.0907 42.6534C92.0907 41.1761 92.3634 39.9545 92.9089 38.9886C93.4543 38.0227 94.1986 37.25 95.1418 36.6705C96.085 36.0909 97.1475 35.6534 98.3293 35.358C99.5225 35.0511 100.755 34.8295 102.028 34.6932C103.562 34.5341 104.807 34.392 105.761 34.267C106.716 34.1307 107.409 33.9261 107.841 33.6534C108.284 33.3693 108.505 32.9318 108.505 32.3409V32.2386C108.505 30.9545 108.125 29.9602 107.363 29.2557C106.602 28.5511 105.505 28.1989 104.074 28.1989C102.562 28.1989 101.363 28.5284 100.477 29.1875C99.602 29.8466 99.0111 30.625 98.7043 31.5227L92.943 30.7045C93.3975 29.1136 94.1475 27.7841 95.193 26.7159C96.2384 25.6364 97.5168 24.8295 99.0282 24.2955C100.54 23.75 102.21 23.4773 104.04 23.4773C105.301 23.4773 106.557 23.625 107.807 23.9205C109.057 24.2159 110.199 24.7045 111.233 25.3864C112.267 26.0568 113.096 26.9716 113.721 28.1307C114.358 29.2898 114.676 30.7386 114.676 32.4773V50H108.744V46.4034H108.54C108.165 47.1307 107.636 47.8125 106.954 48.4489C106.284 49.0739 105.437 49.5795 104.415 49.9659C103.403 50.3409 102.216 50.5284 100.852 50.5284ZM102.454 45.9943C103.693 45.9943 104.767 45.75 105.676 45.2614C106.585 44.7614 107.284 44.1023 107.772 43.2841C108.272 42.4659 108.522 41.5739 108.522 40.608V37.5227C108.329 37.6818 108 37.8295 107.534 37.9659C107.079 38.1023 106.568 38.2216 106 38.3239C105.432 38.4261 104.869 38.517 104.312 38.5966C103.755 38.6761 103.272 38.7443 102.863 38.8011C101.943 38.9261 101.119 39.1307 100.392 39.4148C99.6645 39.6989 99.0907 40.0966 98.6702 40.608C98.2498 41.108 98.0395 41.7557 98.0395 42.5511C98.0395 43.6875 98.4543 44.5455 99.2839 45.125C100.113 45.7045 101.17 45.9943 102.454 45.9943Z" fill="#FBBF24"/>
<path d="M122.113 50V15.0909H135.477C138 15.0909 140.096 15.4886 141.767 16.2841C143.448 17.0682 144.704 18.142 145.534 19.5057C146.375 20.8693 146.795 22.4148 146.795 24.142C146.795 25.5625 146.522 26.7784 145.977 27.7898C145.431 28.7898 144.698 29.6023 143.778 30.2273C142.857 30.8523 141.829 31.3011 140.693 31.5739V31.9148C141.931 31.983 143.119 32.3636 144.255 33.0568C145.403 33.7386 146.34 34.7045 147.068 35.9545C147.795 37.2045 148.159 38.7159 148.159 40.4886C148.159 42.2955 147.721 43.9205 146.846 45.3636C145.971 46.7955 144.653 47.9261 142.892 48.7557C141.13 49.5852 138.914 50 136.244 50H122.113ZM128.437 44.7159H135.238C137.534 44.7159 139.187 44.2784 140.198 43.4034C141.221 42.517 141.732 41.3807 141.732 39.9943C141.732 38.9602 141.477 38.0284 140.965 37.1989C140.454 36.358 139.727 35.6989 138.784 35.2216C137.84 34.733 136.715 34.4886 135.409 34.4886H128.437V44.7159ZM128.437 29.9375H134.693C135.784 29.9375 136.767 29.7386 137.642 29.3409C138.517 28.9318 139.204 28.358 139.704 27.6193C140.215 26.8693 140.471 25.983 140.471 24.9602C140.471 23.608 139.994 22.4943 139.039 21.6193C138.096 20.7443 136.693 20.3068 134.829 20.3068H128.437V29.9375Z" fill="#FBBF24"/>
<path d="M171.035 38.9886V23.8182H177.205V50H171.222V45.3466H170.95C170.359 46.8125 169.387 48.0114 168.035 48.9432C166.694 49.875 165.041 50.3409 163.075 50.3409C161.359 50.3409 159.842 49.9602 158.523 49.1989C157.217 48.4261 156.194 47.3068 155.455 45.8409C154.717 44.3636 154.347 42.5795 154.347 40.4886V23.8182H160.518V39.5341C160.518 41.1932 160.972 42.5114 161.881 43.4886C162.791 44.4659 163.984 44.9545 165.461 44.9545C166.37 44.9545 167.251 44.733 168.103 44.2898C168.955 43.8466 169.654 43.1875 170.2 42.3125C170.756 41.4261 171.035 40.3182 171.035 38.9886Z" fill="#FBBF24"/>
<path d="M197.584 23.8182V28.5909H182.533V23.8182H197.584ZM186.249 17.5455H192.42V42.125C192.42 42.9545 192.545 43.5909 192.795 44.0341C193.056 44.4659 193.397 44.7614 193.817 44.9205C194.238 45.0795 194.704 45.1591 195.215 45.1591C195.601 45.1591 195.954 45.1307 196.272 45.0739C196.601 45.017 196.851 44.9659 197.022 44.9205L198.062 49.7443C197.732 49.858 197.26 49.983 196.647 50.1193C196.045 50.2557 195.306 50.3352 194.431 50.358C192.885 50.4034 191.493 50.1705 190.255 49.6591C189.016 49.1364 188.033 48.3295 187.306 47.2386C186.59 46.1477 186.238 44.7841 186.249 43.1477V17.5455Z" fill="#FBBF24"/>
<path d="M208.75 23.8182L214.034 33.483L219.404 23.8182H225.932L218.04 36.9091L226.068 50H219.574L214.034 40.5739L208.546 50H202L209.978 36.9091L202.205 23.8182H208.75Z" fill="#FBBF24"/>
<path d="M239.105 50.5284C237.446 50.5284 235.952 50.233 234.622 49.642C233.304 49.0398 232.259 48.1534 231.486 46.983C230.724 45.8125 230.344 44.3693 230.344 42.6534C230.344 41.1761 230.617 39.9545 231.162 38.9886C231.707 38.0227 232.452 37.25 233.395 36.6705C234.338 36.0909 235.401 35.6534 236.582 35.358C237.776 35.0511 239.009 34.8295 240.281 34.6932C241.815 34.5341 243.06 34.392 244.014 34.267C244.969 34.1307 245.662 33.9261 246.094 33.6534C246.537 33.3693 246.759 32.9318 246.759 32.3409V32.2386C246.759 30.9545 246.378 29.9602 245.617 29.2557C244.855 28.5511 243.759 28.1989 242.327 28.1989C240.815 28.1989 239.617 28.5284 238.73 29.1875C237.855 29.8466 237.264 30.625 236.957 31.5227L231.196 30.7045C231.651 29.1136 232.401 27.7841 233.446 26.7159C234.492 25.6364 235.77 24.8295 237.281 24.2955C238.793 23.75 240.463 23.4773 242.293 23.4773C243.554 23.4773 244.81 23.625 246.06 23.9205C247.31 24.2159 248.452 24.7045 249.486 25.3864C250.52 26.0568 251.349 26.9716 251.974 28.1307C252.611 29.2898 252.929 30.7386 252.929 32.4773V50H246.997V46.4034H246.793C246.418 47.1307 245.889 47.8125 245.207 48.4489C244.537 49.0739 243.69 49.5795 242.668 49.9659C241.656 50.3409 240.469 50.5284 239.105 50.5284ZM240.707 45.9943C241.946 45.9943 243.02 45.75 243.929 45.2614C244.838 44.7614 245.537 44.1023 246.026 43.2841C246.526 42.4659 246.776 41.5739 246.776 40.608V37.5227C246.582 37.6818 246.253 37.8295 245.787 37.9659C245.332 38.1023 244.821 38.2216 244.253 38.3239C243.685 38.4261 243.122 38.517 242.565 38.5966C242.009 38.6761 241.526 38.7443 241.117 38.8011C240.196 38.9261 239.372 39.1307 238.645 39.4148C237.918 39.6989 237.344 40.0966 236.923 40.608C236.503 41.108 236.293 41.7557 236.293 42.5511C236.293 43.6875 236.707 44.5455 237.537 45.125C238.367 45.7045 239.423 45.9943 240.707 45.9943Z" fill="#FBBF24"/>
<path d="M265.719 41.7841L265.702 34.3352H266.69L276.099 23.8182H283.309L271.736 36.7045H270.457L265.719 41.7841ZM260.094 50V15.0909H266.264V50H260.094ZM276.525 50L268.003 38.0852L272.162 33.7386L283.906 50H276.525Z" fill="#FBBF24"/>
<path d="M295.916 50.5284C294.257 50.5284 292.762 50.233 291.433 49.642C290.115 49.0398 289.069 48.1534 288.296 46.983C287.535 45.8125 287.154 44.3693 287.154 42.6534C287.154 41.1761 287.427 39.9545 287.973 38.9886C288.518 38.0227 289.262 37.25 290.206 36.6705C291.149 36.0909 292.211 35.6534 293.393 35.358C294.586 35.0511 295.819 34.8295 297.092 34.6932C298.626 34.5341 299.87 34.392 300.825 34.267C301.779 34.1307 302.473 33.9261 302.904 33.6534C303.348 33.3693 303.569 32.9318 303.569 32.3409V32.2386C303.569 30.9545 303.189 29.9602 302.427 29.2557C301.666 28.5511 300.569 28.1989 299.137 28.1989C297.626 28.1989 296.427 28.5284 295.541 29.1875C294.666 29.8466 294.075 30.625 293.768 31.5227L288.007 30.7045C288.461 29.1136 289.211 27.7841 290.257 26.7159C291.302 25.6364 292.581 24.8295 294.092 24.2955C295.603 23.75 297.274 23.4773 299.103 23.4773C300.365 23.4773 301.62 23.625 302.87 23.9205C304.12 24.2159 305.262 24.7045 306.296 25.3864C307.331 26.0568 308.16 26.9716 308.785 28.1307C309.421 29.2898 309.74 30.7386 309.74 32.4773V50H303.808V46.4034H303.603C303.228 47.1307 302.7 47.8125 302.018 48.4489C301.348 49.0739 300.501 49.5795 299.478 49.9659C298.467 50.3409 297.279 50.5284 295.916 50.5284ZM297.518 45.9943C298.757 45.9943 299.831 45.75 300.74 45.2614C301.649 44.7614 302.348 44.1023 302.836 43.2841C303.336 42.4659 303.586 41.5739 303.586 40.608V37.5227C303.393 37.6818 303.064 37.8295 302.598 37.9659C302.143 38.1023 301.632 38.2216 301.064 38.3239C300.495 38.4261 299.933 38.517 299.376 38.5966C298.819 38.6761 298.336 38.7443 297.927 38.8011C297.007 38.9261 296.183 39.1307 295.456 39.4148C294.728 39.6989 294.154 40.0966 293.734 40.608C293.314 41.108 293.103 41.7557 293.103 42.5511C293.103 43.6875 293.518 44.5455 294.348 45.125C295.177 45.7045 296.234 45.9943 297.518 45.9943Z" fill="#FBBF24"/>
<path d="M2.90835 18.7142H44.154V30.4186H2.90835V18.7142Z" fill="#592757"/>
<path d="M43.8438 6.6879C44.8745 6.96711 45.4839 8.03849 45.2049 9.0809L32.9115 55.0187C32.6326 56.0611 31.5709 56.6798 30.5402 56.4006L6.0989 49.7797C5.06819 49.5005 4.45878 48.4291 4.73774 47.3867L17.0311 1.44893C17.3101 0.406513 18.3718 -0.21219 19.4025 0.0670168L43.8438 6.6879Z" fill="#FF8D28"/>
<path d="M40.535 5.79155L27.229 55.513L23.2301 54.4298L36.5361 4.70829L40.535 5.79155Z" fill="#081208"/>
<path d="M37.1592 2.14725C38.2322 2.18603 39.0707 3.09397 39.0321 4.17519L37.331 51.8234C37.2924 52.9046 36.3913 53.7497 35.3183 53.7109L9.87494 52.7914C8.80197 52.7526 7.96346 51.8447 8.00206 50.7634L9.70317 3.11527C9.74177 2.03405 10.6429 1.18897 11.7158 1.22775L37.1592 2.14725Z" fill="#5386E4"/>
<path d="M33.7148 2.02274L31.8736 53.5955L27.7107 53.4451L29.5519 1.8723L33.7148 2.02274Z" fill="#081208"/>
<path d="M29.8287 4.97562C30.8786 4.78182 31.8867 5.48548 32.0803 6.5473L40.6134 53.34C40.807 54.4018 40.1129 55.4196 39.063 55.6134L14.1669 60.2091C13.117 60.4029 12.1089 59.6993 11.9153 58.6375L3.38221 11.8448C3.18857 10.783 3.8827 9.76511 4.93259 9.5713L29.8287 4.97562Z" fill="#80387D"/>
<path d="M26.4583 5.59774L35.6942 56.2445L31.6209 56.9964L22.385 6.34965L26.4583 5.59774Z" fill="#081208"/>
<path d="M0 20.9291H24V65L4.85246 56.8192L0 20.9291Z" fill="#FBBF24"/>
<path d="M48 20.9291H24V65L43.1475 56.8192L48 20.9291Z" fill="#F9BB19"/>
<path d="M24.2126 62.2021L24.2642 62.3245L24.0181 62.4294L24.0008 62.4364L23.9905 62.4614L23.9717 62.4533L23.9887 62.4128L23.9665 62.3598L23.944 62.4128L23.9613 62.4533L23.9425 62.4614L23.9319 62.4364L23.9151 62.4294L23.6688 62.3245L23.7204 62.2021L23.7718 62.0795L23.9665 62.1621L24.1612 62.0795L24.2126 62.2021ZM23.2797 61.8701L23.2283 61.9925L23.1767 62.1151L22.6845 61.9057L22.7362 61.7831L22.7876 61.6605L23.2797 61.8701ZM25.1968 61.7831L25.2484 61.9057L24.7563 62.1151L24.7047 61.9925L24.6533 61.8701L25.1454 61.6605L25.1968 61.7831ZM22.2954 61.4511L22.244 61.5737L22.1924 61.6961L21.7003 61.4867L21.7519 61.3641L21.8033 61.2417L22.2954 61.4511ZM26.1811 61.3641L26.2327 61.4867L25.7406 61.6961L25.6889 61.5737L25.6376 61.4511L26.1297 61.2417L26.1811 61.3641ZM21.3112 61.0321L21.2598 61.1547L21.2082 61.277L20.716 61.0677L20.7677 60.945L20.8191 60.8227L21.3112 61.0321ZM27.1653 60.945L27.2169 61.0677L26.7248 61.277L26.6732 61.1547L26.6218 61.0321L27.1139 60.8227L27.1653 60.945ZM20.3269 60.6131L20.2755 60.7357L20.2239 60.8583L19.7318 60.6486L19.7834 60.5263L19.8348 60.4037L20.3269 60.6131ZM28.1496 60.5263L28.2012 60.6486L27.7091 60.8583L27.6574 60.7357L27.6061 60.6131L28.0982 60.4037L28.1496 60.5263ZM19.3427 60.1943L19.2913 60.3167L19.2397 60.4393L18.7475 60.2296L18.7992 60.1073L18.8505 59.9847L19.3427 60.1943ZM29.1338 60.1073L29.1855 60.2296L28.6933 60.4393L28.6417 60.3167L28.5903 60.1943L29.0824 59.9847L29.1338 60.1073ZM18.3584 59.7753L18.307 59.8976L18.2554 60.0202L17.7633 59.8106L17.8147 59.6883L17.8663 59.5656L18.3584 59.7753ZM30.1183 59.6883L30.1697 59.8106L29.6776 60.0202L29.6262 59.8976L29.5746 59.7753L30.0667 59.5656L30.1183 59.6883ZM17.3742 59.3563L17.3225 59.4789L17.2711 59.6012L16.779 59.3918L16.8304 59.2692L16.882 59.1469L17.3742 59.3563ZM31.1026 59.2692L31.154 59.3918L30.6618 59.6012L30.6105 59.4789L30.5588 59.3563L31.0509 59.1469L31.1026 59.2692ZM16.3899 58.9372L16.3383 59.0599L16.2869 59.1822L15.7948 58.9728L15.8462 58.8502L15.8978 58.7279L16.3899 58.9372ZM32.0868 58.8502L32.1382 58.9728L31.6461 59.1822L31.5947 59.0599L31.5431 58.9372L32.0352 58.7279L32.0868 58.8502ZM15.4057 58.5182L15.354 58.6408L15.3026 58.7632L14.8105 58.5538L14.8619 58.4315L14.9135 58.3088L15.4057 58.5182ZM33.0711 58.4315L33.1225 58.5538L32.6303 58.7632L32.579 58.6408L32.5273 58.5182L33.0194 58.3088L33.0711 58.4315ZM14.4214 58.0995L14.3698 58.2218L14.3184 58.3444L13.8263 58.1348L13.8776 58.0124L13.9293 57.8898L14.4214 58.0995ZM34.0553 58.0124L34.1067 58.1348L33.6146 58.3444L33.5632 58.2218L33.5116 58.0995L34.0037 57.8898L34.0553 58.0124ZM13.4372 57.6804L13.3855 57.8028L13.3341 57.9254L12.842 57.7158L12.8934 57.5934L12.945 57.4708L13.4372 57.6804ZM35.0396 57.5934L35.091 57.7158L34.5988 57.9254L34.5475 57.8028L34.4958 57.6804L34.9879 57.4708L35.0396 57.5934ZM12.4529 57.2614L12.4013 57.384L12.3499 57.5064L11.8575 57.297L11.9091 57.1744L11.9605 57.052L12.4529 57.2614ZM36.0238 57.1744L36.0755 57.297L35.5834 57.5064L35.5317 57.384L35.4803 57.2614L35.9725 57.052L36.0238 57.1744ZM11.4684 56.8424L11.417 56.965L11.3654 57.0874L10.8733 56.878L10.9249 56.7554L10.9763 56.633L11.4684 56.8424ZM37.0081 56.7554L37.0597 56.878L36.5676 57.0874L36.516 56.965L36.4646 56.8424L36.9567 56.633L37.0081 56.7554ZM10.4841 56.4234L10.4328 56.546L10.3811 56.6684L9.889 56.459L9.94064 56.3366L9.99202 56.214L10.4841 56.4234ZM37.9923 56.3366L38.044 56.459L37.5519 56.6684L37.5002 56.546L37.4488 56.4234L37.941 56.214L37.9923 56.3366ZM9.49989 56.0046L9.44851 56.127L9.39687 56.2496L8.90475 56.04L8.95639 55.9176L9.00777 55.795L9.49989 56.0046ZM38.9766 55.9176L39.0282 56.04L38.5361 56.2496L38.4845 56.127L38.4331 56.0046L38.9252 55.795L38.9766 55.9176ZM8.51564 55.5856L8.46426 55.708L8.41262 55.8306L7.92049 55.6209L7.97213 55.4986L8.02351 55.376L8.51564 55.5856ZM39.9608 55.4986L40.0125 55.6209L39.5204 55.8306L39.4687 55.708L39.4173 55.5856L39.9095 55.376L39.9608 55.4986ZM7.35452 55.0913L7.53139 55.1666L7.48001 55.2889L7.42837 55.4116L7.1823 55.3069L7.1681 55.3009L7.18824 55.2528L7.15261 55.2578L7.13996 55.2887L7.12576 55.2827L7.13505 55.2604L7.1113 55.2638L7.10923 55.2484L7.14203 55.2437L7.15597 55.2105L7.10485 55.2178L7.10278 55.2024L7.06612 54.9338L7.32793 54.8975L7.35452 55.0913ZM40.8671 54.9318L40.8302 55.2024L40.8281 55.2178L40.7768 55.2105L40.7907 55.2437L40.8237 55.2484L40.8217 55.2638L40.7977 55.2604L40.8072 55.2827L40.793 55.2887L40.7801 55.2578L40.7445 55.2528L40.7649 55.3009L40.7507 55.3069L40.5046 55.4116L40.453 55.2892L40.4016 55.1666L40.5782 55.0913L40.6053 54.8954L40.8671 54.9318ZM7.17353 55.2082L7.15958 55.2411L7.19521 55.2365L7.20916 55.2032L7.17353 55.2082ZM40.7375 55.2365L40.7731 55.2411L40.7592 55.2082L40.7236 55.2032L40.7375 55.2365ZM7.25434 54.3603L6.99227 54.3966L6.91868 53.8594L7.18076 53.823L7.25434 54.3603ZM41.0156 53.849L40.9415 54.3904L40.6794 54.354L40.7538 53.8126L41.0156 53.849ZM7.10691 53.2858L6.8451 53.3222L6.77151 52.7847L7.03332 52.7483L7.10691 53.2858ZM41.1641 52.7663L41.09 53.3076L40.8279 53.2713L40.9022 52.7299L41.1641 52.7663ZM6.95974 52.2111L6.69767 52.2475L6.62408 51.7103L6.88615 51.6739L6.95974 52.2111ZM41.3125 51.6835L41.2384 52.2249L40.9763 52.1885L41.0507 51.6472L41.3125 51.6835ZM6.81231 51.1367L6.55049 51.1731L6.47691 50.6358L6.73872 50.5995L6.81231 51.1367ZM41.461 50.6008L41.3869 51.1421L41.1248 51.1058L41.1992 50.5644L41.461 50.6008ZM6.66513 50.062L6.40306 50.0984L6.32948 49.5612L6.59129 49.5248L6.66513 50.062ZM41.6094 49.518L41.5351 50.0594L41.2733 50.023L41.3474 49.4817L41.6094 49.518ZM6.5177 48.9876L6.25589 49.0239L6.18204 48.4867L6.44412 48.4504L6.5177 48.9876ZM41.627 48.4171L41.7579 48.4353L41.6835 48.9767L41.4217 48.9403L41.4958 48.3992L41.627 48.4171ZM6.37053 47.9131L6.10846 47.9495L6.03487 47.412L6.29668 47.3757L6.37053 47.9131ZM41.7752 47.3344L41.9064 47.3525L41.832 47.8939L41.7011 47.8757L41.5702 47.8578L41.6443 47.3164L41.7752 47.3344ZM23.8756 46.7706L23.825 46.8935L23.7746 47.0164L23.5273 46.9135L23.5776 46.7906L23.6283 46.6675L23.8756 46.7706ZM24.2567 46.9133L24.0091 47.0164L23.9587 46.8935L23.9081 46.7706L24.1555 46.6675L24.2567 46.9133ZM6.2231 46.8384L5.96128 46.8748L5.88744 46.3376L6.14951 46.3012L6.2231 46.8384ZM41.9237 46.2519L42.0548 46.2698L41.9805 46.8112L41.8496 46.7932L41.7187 46.7751L41.7928 46.2337L41.9237 46.2519ZM23.1335 46.4618L23.0323 46.7075L22.5376 46.5015L22.6388 46.2558L23.1335 46.4618ZM25.1963 46.3784L25.2466 46.5013L24.7517 46.7073L24.7011 46.5844L24.6507 46.4615L25.1457 46.2555L25.1963 46.3784ZM22.1439 46.0498L22.0935 46.1726L22.0429 46.2955L21.5482 46.0895L21.5986 45.9666L21.6492 45.8438L22.1439 46.0498ZM26.2368 46.089L25.7419 46.295L25.6406 46.0492L26.1356 45.8432L26.2368 46.089ZM21.1545 45.6378L21.1038 45.7606L21.0535 45.8835L20.5585 45.6775L20.6597 45.4318L21.1545 45.6378ZM27.1764 45.5539L27.2268 45.6767L26.7318 45.883L26.6812 45.7601L26.6308 45.6372L27.1258 45.431L27.1764 45.5539ZM6.07592 45.764L5.81385 45.8004L5.74027 45.2632L6.00208 45.2268L6.07592 45.764ZM42.203 45.1873L42.1289 45.7284L41.998 45.7105L41.8671 45.6923L41.9412 45.1509L42.203 45.1873ZM20.165 45.2258L20.0638 45.4715L19.5691 45.2655L19.6197 45.1426L19.6701 45.0198L20.165 45.2258ZM28.217 45.2647L27.722 45.4707L27.6208 45.225L28.1157 45.019L28.217 45.2647ZM19.1754 44.8138L19.1248 44.9366L19.0744 45.0595L18.5794 44.8535L18.6807 44.6077L19.1754 44.8138ZM29.1563 44.7296L29.2069 44.8525L28.7119 45.0585L28.6107 44.8127L29.1059 44.6067L29.1563 44.7296ZM5.92849 44.6893L5.66668 44.7257L5.59284 44.1885L5.85491 44.1521L5.92849 44.6893ZM18.1859 44.4017L18.0847 44.6478L17.59 44.4417L17.6912 44.1957L18.1859 44.4017ZM30.1971 44.4402L29.7019 44.6465L29.6515 44.5236L29.6009 44.4007L30.0959 44.1944L30.1971 44.4402ZM42.3515 44.1046L42.2774 44.6459L42.0153 44.6096L42.0897 44.0682L42.3515 44.1046ZM24.0881 44.042L24.0403 44.1661L23.9928 44.29L23.7419 44.1929L23.7896 44.0687L23.8371 43.9445L24.0881 44.042ZM24.4739 44.1929L24.2234 44.29L24.1759 44.1661L24.1281 44.042L24.3788 43.9448L24.4739 44.1929ZM17.1963 43.99L17.1459 44.1129L17.0953 44.2357L16.6006 44.0297L16.651 43.9069L16.7016 43.784L17.1963 43.99ZM31.187 44.0282L30.692 44.2342L30.5908 43.9884L31.0858 43.7824L31.187 44.0282ZM25.4764 43.804L24.9753 43.9986L24.9275 43.8744L24.88 43.7502L25.3814 43.5559L25.4764 43.804ZM23.3352 43.75L23.2402 43.9981L22.7385 43.8035L22.8335 43.5554L23.3352 43.75ZM16.2069 43.578L16.1056 43.8237L15.6109 43.6177L15.7121 43.372L16.2069 43.578ZM32.1266 43.493L32.1769 43.6159L31.682 43.8219L31.6314 43.6991L31.581 43.5762L32.076 43.3702L32.1266 43.493ZM5.78106 43.6149L5.51925 43.6513L5.44566 43.114L5.70748 43.0777L5.78106 43.6149ZM26.4788 43.4151L25.9776 43.6097L25.8826 43.3613L26.3837 43.167L26.4788 43.4151ZM22.3318 43.3608L22.2843 43.4847L22.2366 43.6089L21.7349 43.4143L21.8299 43.166L22.3318 43.3608ZM42.5 43.0218L42.4259 43.5632L42.1638 43.5268L42.2382 42.9854L42.5 43.0218ZM15.2174 43.166L15.1162 43.4117L14.6215 43.2057L14.6721 43.0829L14.7225 42.96L15.2174 43.166ZM33.1671 43.2037L32.6722 43.4099L32.571 43.1642L33.0659 42.9579L33.1671 43.2037ZM27.4813 43.0262L26.9802 43.2208L26.9327 43.0966L26.8849 42.9725L27.3863 42.7781L27.4813 43.0262ZM21.3282 42.9714L21.2332 43.2195L20.7313 43.0249L20.7788 42.9008L20.8265 42.7768L21.3282 42.9714ZM14.2278 42.754L14.1772 42.8769L14.1268 42.9997L13.6318 42.7937L13.7331 42.548L14.2278 42.754ZM34.1067 42.6688L34.1571 42.7917L33.6621 42.9977L33.6115 42.8748L33.5611 42.7519L34.0561 42.5459L34.1067 42.6688ZM28.4362 42.5134L28.4839 42.6376L27.9825 42.8319L27.8875 42.5838L28.3887 42.3893L28.4362 42.5134ZM20.3246 42.582L20.2296 42.8304L19.7279 42.6358L19.8229 42.3874L20.3246 42.582ZM13.2383 42.342L13.1371 42.5877L12.6424 42.382L12.693 42.2589L12.7434 42.136L13.2383 42.342ZM35.1473 42.3794L34.652 42.5854L34.6017 42.4625L34.5511 42.3396L35.046 42.1336L35.1473 42.3794ZM5.63389 42.5405L5.37208 42.5768L5.29823 42.0393L5.5603 42.003L5.63389 42.5405ZM42.6484 41.9391L42.5743 42.4804L42.3123 42.4441L42.3866 41.9027L42.6484 41.9391ZM29.4863 42.2487L28.9851 42.443L28.9376 42.3189L28.8898 42.195L29.3912 42.0004L29.4863 42.2487ZM19.3212 42.1929L19.2735 42.317L19.226 42.441L18.7243 42.2464L18.8193 41.9983L19.3212 42.1929ZM12.2487 41.93L12.1983 42.0529L12.1477 42.176L11.653 41.97L11.7034 41.8471L11.754 41.724L12.2487 41.93ZM36.0866 41.8443L36.1372 41.9674L35.6422 42.1734L35.541 41.9276L36.0362 41.7214L36.0866 41.8443ZM30.4411 41.7357L30.4888 41.8598L29.9874 42.0542L29.8924 41.8061L30.3936 41.6115L30.4411 41.7357ZM18.3176 41.8035L18.2701 41.9276L18.2224 42.0518L17.7207 41.8572L17.8157 41.6089L18.3176 41.8035ZM11.2593 41.5182L11.158 41.764L10.6633 41.558L10.7645 41.3122L11.2593 41.5182ZM37.1274 41.5551L36.6322 41.7611L36.5818 41.6383L36.5312 41.5154L37.0262 41.3094L37.1274 41.5551ZM31.4912 41.471L30.99 41.6653L30.9425 41.5414L30.8947 41.4172L31.3961 41.2226L31.4912 41.471ZM17.314 41.4143L17.219 41.6624L16.7171 41.4678L16.7646 41.3437L16.8123 41.2198L17.314 41.4143ZM5.48646 41.4658L5.22464 41.5021L5.15106 40.9649L5.41287 40.9285L5.48646 41.4658ZM42.7969 40.8563L42.7228 41.3977L42.4607 41.3613L42.5351 40.82L42.7969 40.8563ZM10.2696 41.1062L10.2192 41.2291L10.1686 41.352L9.67392 41.146L9.72427 41.0231L9.77487 40.9002L10.2696 41.1062ZM38.1173 41.1429L37.6223 41.3491L37.5211 41.1031L38.0161 40.8971L38.1173 41.1429ZM32.446 40.9579L32.4938 41.0821L31.9923 41.2764L31.8973 41.0283L32.3985 40.834L32.446 40.9579ZM16.3104 41.0249L16.2154 41.2733L15.7137 41.0787L15.8087 40.8303L16.3104 41.0249ZM9.28017 40.6942L9.22956 40.8171L9.17921 40.94L8.68424 40.734L8.78546 40.4882L9.28017 40.6942ZM39.0569 40.6077L39.1072 40.7309L38.6123 40.9369L38.5617 40.814L38.5113 40.6911L39.0063 40.4848L39.0569 40.6077ZM33.4961 40.6932L32.9949 40.8878L32.8999 40.6394L33.4011 40.4451L33.4961 40.6932ZM15.307 40.6358L15.2593 40.7599L15.2118 40.8839L14.7101 40.6893L14.8051 40.4412L15.307 40.6358ZM8.29075 40.2822L8.18954 40.528L7.69483 40.322L7.74544 40.1991L7.79578 40.0762L8.29075 40.2822ZM40.0974 40.3186L39.6025 40.5246L39.5013 40.2788L39.9962 40.0728L40.0974 40.3186ZM34.4512 40.1804L34.4987 40.3043L33.9972 40.4989L33.9022 40.2505L34.4034 40.0562L34.4512 40.1804ZM14.3034 40.2464L14.2559 40.3705L14.2081 40.4947L13.7065 40.3001L13.8015 40.0518L14.3034 40.2464ZM5.33928 40.3913L5.07721 40.4277L5.00363 39.8905L5.2657 39.8541L5.33928 40.3913ZM42.9454 39.7736L42.871 40.315L42.6092 40.2786L42.6835 39.7372L42.9454 39.7736ZM7.30108 39.8702L7.25047 39.9931L7.20012 40.116L6.70515 39.9102L6.80637 39.6642L7.30108 39.8702ZM41.0368 39.7835L41.0874 39.9063L40.5924 40.1126L40.5418 39.9895L40.4914 39.8666L40.9864 39.6606L41.0368 39.7835ZM35.501 39.9154L34.9998 40.11L34.9048 39.8616L35.406 39.6673L35.501 39.9154ZM13.2998 39.8572L13.2048 40.1053L12.7028 39.9107L12.7504 39.7866L12.7981 39.6627L13.2998 39.8572ZM36.4561 39.4026L36.5036 39.5265L36.0022 39.7211L35.9071 39.4728L36.4083 39.2784L36.4561 39.4026ZM12.2962 39.4678L12.2012 39.7162L11.6995 39.5216L11.7945 39.2733L12.2962 39.4678ZM6.31166 39.4582L6.21045 39.7042L5.71574 39.4982L5.81695 39.2525L6.31166 39.4582ZM42.0776 39.4943L41.5823 39.7003L41.532 39.5774L41.4814 39.4546L41.9763 39.2483L42.0776 39.4943ZM5.1446 38.9724L5.32199 39.0465L5.27164 39.1693L5.22103 39.2922L5.18643 39.2777L5.19185 39.3166L4.93004 39.353L4.858 38.8283L4.98917 38.8103L5.12007 38.7921L5.1446 38.9724ZM37.5059 39.1379L37.0047 39.3322L36.9097 39.0841L37.4109 38.8896L37.5059 39.1379ZM11.2928 39.0787L11.2451 39.2029L11.1975 39.3268L10.6959 39.1322L10.7909 38.8841L11.2928 39.0787ZM43.0938 38.6908L43.0195 39.2322L42.8886 39.214L42.785 39.1995L42.5725 39.2881L42.4713 39.0423L42.7189 38.9392L42.7695 39.0621L42.7742 39.0737L42.8318 38.6545L43.0938 38.6908ZM38.461 38.6249L38.5085 38.749L38.0073 38.9433L37.9596 38.8192L37.912 38.6953L38.4132 38.5007L38.461 38.6249ZM10.2892 38.6893L10.2417 38.8134L10.1939 38.9376L9.69225 38.743L9.78727 38.4947L10.2892 38.6893ZM39.5108 38.3601L39.0096 38.5545L38.9146 38.3064L39.4158 38.1118L39.5108 38.3601ZM9.28559 38.3001L9.19057 38.5482L8.68863 38.3536L8.7364 38.2295L8.78391 38.1056L9.28559 38.3001ZM5.04984 38.2799L4.78777 38.3162L4.71754 37.8042L4.97961 37.7679L5.04984 38.2799ZM40.5134 37.9713L40.0122 38.1656L39.9645 38.0417L39.917 37.9175L40.4184 37.7229L40.5134 37.9713ZM8.28197 37.9107L8.18695 38.1591L7.68528 37.9645L7.78029 37.7162L8.28197 37.9107ZM43.2423 37.6081L43.1679 38.1495L42.9061 38.1131L42.9802 37.5717L43.2423 37.6081ZM41.5157 37.5824L41.0146 37.7767L40.9195 37.5286L41.4207 37.3343L41.5157 37.5824ZM7.27861 37.5216L7.23085 37.6458L7.18334 37.7697L6.68166 37.5751L6.77667 37.327L7.27861 37.5216ZM42.5183 37.1935L42.0171 37.3881L41.9694 37.2639L41.9219 37.1397L42.4233 36.9454L42.5183 37.1935ZM6.275 37.1322L6.22749 37.2564L6.17972 37.3805L5.67804 37.186L5.77306 36.9376L6.275 37.1322ZM4.90938 37.2556L4.64757 37.2919L4.57734 36.7799L4.83915 36.7436L4.90938 37.2556ZM43.3908 36.5235L43.3164 37.0667L43.0546 37.0303L43.061 36.9828L43.0195 36.9992L42.9244 36.7508L43.1021 36.6817L43.1289 36.4872L43.3908 36.5235ZM5.27138 36.743L5.17636 36.9911L4.92539 36.894L5.02041 36.6456L5.27138 36.743ZM4.76892 36.2315L4.50711 36.2679L4.43688 35.7556L4.69869 35.7193L4.76892 36.2315ZM43.5403 35.434L43.4656 35.9788L43.2036 35.9424L43.2784 35.3977L43.5403 35.434ZM4.62846 35.2072L4.36665 35.2436L4.29642 34.7313L4.55823 34.695L4.62846 35.2072ZM43.6898 34.3443L43.6149 34.8893L43.3531 34.8529L43.4277 34.3079L43.6898 34.3443ZM4.488 34.1829L4.22619 34.2193L4.15596 33.7073L4.41803 33.6709L4.488 34.1829ZM43.839 33.2548L43.7644 33.7995L43.5023 33.7631L43.5772 33.2184L43.839 33.2548ZM4.3478 33.1586L4.08573 33.195L4.0155 32.683L4.27757 32.6466L4.3478 33.1586ZM43.9885 32.1653L43.9136 32.71L43.6518 32.6736L43.7264 32.1289L43.9885 32.1653ZM4.20734 32.1346L4.07644 32.1525L3.94527 32.1707L3.8753 31.6587L4.13711 31.6223L4.20734 32.1346ZM44.1377 31.0755L44.0631 31.6205L43.801 31.5841L43.8759 31.0391L44.1377 31.0755ZM4.06688 31.1103L3.80507 31.1467L3.73484 30.6344L3.99665 30.598L4.06688 31.1103ZM44.2872 29.986L44.2123 30.5308L43.9505 30.4944L44.0252 29.9496L44.2872 29.986ZM3.92642 30.086L3.66461 30.1224L3.59438 29.6101L3.72529 29.5919L3.85619 29.574L3.92642 30.086ZM44.4365 28.8965L44.3618 29.4413L44.1 29.4049L44.1746 28.8601L44.4365 28.8965ZM3.78596 29.0617L3.52415 29.0981L3.45392 28.5861L3.71573 28.5497L3.78596 29.0617ZM44.586 27.8067L44.5111 28.3515L44.3802 28.3336L44.2493 28.3154L44.3239 27.7704L44.586 27.8067ZM3.6455 28.0374L3.38369 28.0738L3.31346 27.5618L3.57553 27.5254L3.6455 28.0374ZM44.7352 26.7172L44.6606 27.262L44.3988 27.2256L44.4734 26.6809L44.7352 26.7172ZM3.5053 27.0134L3.37414 27.0316L3.24323 27.0495L3.173 26.5375L3.43507 26.5011L3.5053 27.0134ZM44.8847 25.6278L44.8101 26.1725L44.548 26.1361L44.6226 25.5914L44.8847 25.6278ZM3.36484 25.9891L3.10277 26.0255L3.0328 25.5132L3.29461 25.4768L3.36484 25.9891ZM45.0339 24.538L44.9593 25.0827L44.6975 25.0464L44.7721 24.5016L45.0339 24.538ZM3.22438 24.9648L2.96257 25.0012L2.89234 24.4892L3.15415 24.4528L3.22438 24.9648ZM44.9059 23.4758V23.6875L45.146 23.7207L45.1088 23.9932L44.8467 23.9569L44.8764 23.7418H44.6443V23.4758H44.9059ZM3.28867 23.4758V23.7418H3.05655L3.08392 23.9405L2.82211 23.9769L2.78699 23.7207L3.02712 23.6875V23.4758H3.28867ZM4.33567 23.4758V23.7418H3.8123V23.4758H4.33567ZM5.38266 23.4758V23.7418H4.85929V23.4758H5.38266ZM6.42966 23.4758V23.7418H5.90629V23.4758H6.42966ZM7.47665 23.4758V23.7418H6.95328V23.4758H7.47665ZM8.52365 23.4758V23.7418H8.00002V23.4758H8.52365ZM9.57064 23.4758V23.7418H9.04701V23.4758H9.57064ZM10.6176 23.4758V23.7418H10.094V23.4758H10.6176ZM11.6646 23.4758V23.7418H11.141V23.4758H11.6646ZM12.7116 23.4758V23.7418H12.188V23.4758H12.7116ZM13.7586 23.4758V23.7418H13.235V23.4758H13.7586ZM14.8054 23.4758V23.7418H14.282V23.4758H14.8054ZM15.8523 23.4758V23.7418H15.329V23.4758H15.8523ZM16.8993 23.4758V23.7418H16.376V23.4758H16.8993ZM17.9463 23.4758V23.7418H17.423V23.4758H17.9463ZM18.9933 23.4758V23.7418H18.47V23.4758H18.9933ZM20.0403 23.4758V23.7418H19.517V23.4758H20.0403ZM21.0873 23.4758V23.7418H20.564V23.4758H21.0873ZM22.1343 23.4758V23.7418H21.6107V23.4758H22.1343ZM23.1813 23.4758V23.7418H22.6577V23.4758H23.1813ZM24.2283 23.4758V23.7418H23.7047V23.4758H24.2283ZM25.2753 23.4758V23.7418H24.7517V23.4758H25.2753ZM26.3223 23.4758V23.7418H25.7987V23.4758H26.3223ZM27.3693 23.4758V23.7418H26.8457V23.4758H27.3693ZM28.416 23.4758V23.7418H27.8927V23.4758H28.416ZM29.463 23.4758V23.7418H28.9396V23.4758H29.463ZM30.51 23.4758V23.7418H29.9866V23.4758H30.51ZM31.557 23.4758V23.7418H31.0336V23.4758H31.557ZM32.604 23.4758V23.7418H32.0806V23.4758H32.604ZM33.651 23.4758V23.7418H33.1276V23.4758H33.651ZM34.698 23.4758V23.7418H34.1746V23.4758H34.698ZM35.745 23.4758V23.7418H35.2214V23.4758H35.745ZM36.792 23.4758V23.7418H36.2684V23.4758H36.792ZM37.839 23.4758V23.7418H37.3153V23.4758H37.839ZM38.886 23.4758V23.7418H38.3623V23.4758H38.886ZM39.933 23.4758V23.7418H39.4093V23.4758H39.933ZM40.9797 23.4758V23.7418H40.4563V23.4758H40.9797ZM42.0267 23.4758V23.7418H41.5033V23.4758H42.0267ZM43.0737 23.4758V23.7418H42.5503V23.4758H43.0737ZM44.1207 23.4758V23.7418H43.5973V23.4758H44.1207Z" fill="#275928"/>
</svg>
