<svg width="153" height="90" viewBox="0 0 153 90" fill="none" xmlns="http://www.w3.org/2000/svg">
<path d="M0 89.664V67.4648H3.96056V86.2929H13.5897V89.664H0Z" fill="#FBBF24"/>
<path d="M22.1762 90C21.1371 90 20.2012 89.8121 19.3685 89.4363C18.543 89.0534 17.8882 88.4897 17.4043 87.7454C16.9274 87.0011 16.689 86.0833 16.689 84.9922C16.689 84.0528 16.8598 83.2759 17.2014 82.6617C17.543 82.0475 18.0092 81.5561 18.5999 81.1875C19.1906 80.819 19.856 80.5408 20.5962 80.3529C21.3435 80.1578 22.1157 80.0169 22.9128 79.9301C23.8735 79.829 24.6528 79.7386 25.2507 79.6592C25.8485 79.5724 26.2826 79.4424 26.5531 79.2689C26.8306 79.0883 26.9694 78.8101 26.9694 78.4343V78.3693C26.9694 77.5527 26.731 76.9204 26.2541 76.4724C25.7773 76.0243 25.0905 75.8003 24.1938 75.8003C23.2472 75.8003 22.4964 76.0099 21.9413 76.429C21.3933 76.8481 21.0232 77.3431 20.8311 77.914L17.2228 77.3937C17.5075 76.382 17.9772 75.5366 18.6319 74.8573C19.2867 74.1708 20.0873 73.6577 21.0339 73.3181C21.9804 72.9712 23.0266 72.7978 24.1724 72.7978C24.9624 72.7978 25.7488 72.8917 26.5317 73.0796C27.3146 73.2675 28.0298 73.5782 28.6775 74.0118C29.3251 74.4382 29.8446 75.0199 30.2361 75.757C30.6346 76.494 30.8339 77.4154 30.8339 78.521V89.664H27.1188V87.3769H26.9907C26.7559 87.8393 26.4249 88.2729 25.9979 88.6776C25.578 89.075 25.0478 89.3966 24.4073 89.6423C23.7739 89.8808 23.0302 90 22.1762 90ZM23.1796 87.1167C23.9554 87.1167 24.6279 86.9613 25.1973 86.6506C25.7666 86.3327 26.2043 85.9135 26.5104 85.3932C26.8235 84.8729 26.9801 84.3057 26.9801 83.6914V81.7295C26.8591 81.8307 26.6527 81.9246 26.3609 82.0113C26.0762 82.098 25.756 82.1739 25.4001 82.239C25.0443 82.304 24.692 82.3618 24.3433 82.4124C23.9945 82.463 23.6921 82.5063 23.4358 82.5424C22.8594 82.6219 22.3434 82.752 21.8879 82.9327C21.4324 83.1133 21.073 83.3663 20.8097 83.6914C20.5464 84.0094 20.4147 84.4213 20.4147 84.9271C20.4147 85.6498 20.6745 86.1954 21.194 86.5639C21.7136 86.9324 22.3754 87.1167 23.1796 87.1167Z" fill="#FBBF24"/>
<path d="M35.4917 89.664V67.4648H43.8612C45.4412 67.4648 46.7543 67.7177 47.8004 68.2235C48.8538 68.7222 49.6402 69.405 50.1597 70.2722C50.6864 71.1394 50.9497 72.1221 50.9497 73.2205C50.9497 74.1238 50.7789 74.897 50.4373 75.5402C50.0957 76.1761 49.6366 76.6928 49.0601 77.0902C48.4837 77.4877 47.8396 77.7731 47.1279 77.9465V78.1633C47.9036 78.2067 48.6474 78.4488 49.3591 78.8896C50.0779 79.3231 50.665 79.9374 51.1205 80.7323C51.576 81.5272 51.8037 82.4883 51.8037 83.6156C51.8037 84.7645 51.5297 85.7979 50.9817 86.7156C50.4337 87.6262 49.6081 88.3452 48.505 88.8727C47.4019 89.4002 46.0141 89.664 44.3416 89.664H35.4917ZM39.4523 86.3037H43.7118C45.1494 86.3037 46.1849 86.0255 46.8183 85.4691C47.4588 84.9055 47.7791 84.1828 47.7791 83.3012C47.7791 82.6436 47.619 82.0511 47.2987 81.5236C46.9784 80.9888 46.523 80.5697 45.9323 80.2662C45.3416 79.9554 44.637 79.8001 43.8185 79.8001H39.4523V86.3037ZM39.4523 76.9059H43.3702C44.0534 76.9059 44.669 76.7795 45.217 76.5266C45.765 76.2664 46.1956 75.9015 46.5087 75.4318C46.829 74.9548 46.9891 74.3912 46.9891 73.7408C46.9891 72.8809 46.6902 72.1727 46.0924 71.6163C45.5017 71.0599 44.6227 70.7816 43.4556 70.7816H39.4523V76.9059Z" fill="#FBBF24"/>
<path d="M66.1308 82.6617V73.0146H69.9953V89.664H66.2482V86.7048H66.0774C65.7073 87.637 65.0988 88.3994 64.2519 88.9919C63.4121 89.5845 62.3766 89.8808 61.1454 89.8808C60.0707 89.8808 59.1206 89.6387 58.2951 89.1545C57.4766 88.6631 56.8361 87.9513 56.3735 87.0191C55.9109 86.0797 55.6796 84.9452 55.6796 83.6156V73.0146H59.5441V83.0086C59.5441 84.0636 59.8288 84.9018 60.3981 85.5233C60.9675 86.1448 61.7148 86.4555 62.64 86.4555C63.2093 86.4555 63.7609 86.3146 64.2946 86.0328C64.8284 85.7509 65.2661 85.3318 65.6077 84.7754C65.9564 84.2117 66.1308 83.5072 66.1308 82.6617Z" fill="#FBBF24"/>
<path d="M82.7584 73.0146V76.0496H73.3321V73.0146H82.7584ZM75.6593 69.0257H79.5238V84.6562C79.5238 85.1837 79.6021 85.5883 79.7587 85.8702C79.9223 86.1448 80.1358 86.3327 80.3992 86.4338C80.6625 86.535 80.9543 86.5856 81.2746 86.5856C81.5165 86.5856 81.7372 86.5675 81.9364 86.5314C82.1428 86.4952 82.2994 86.4627 82.4061 86.4338L83.0573 89.5014C82.851 89.5737 82.5556 89.6531 82.1713 89.7399C81.7941 89.8266 81.3315 89.8772 80.7835 89.8916C79.8156 89.9205 78.9438 89.7724 78.168 89.4472C77.3923 89.1148 76.7767 88.6017 76.3212 87.908C75.8728 87.2143 75.6522 86.3471 75.6593 85.3065V69.0257Z" fill="#FBBF24"/>
<path d="M89.7515 73.0146L93.0609 79.1605L96.4236 73.0146H100.512L95.5696 81.3393L100.598 89.664H96.5304L93.0609 83.6698L89.6234 89.664H85.5241L90.5202 81.3393L85.6522 73.0146H89.7515Z" fill="#FBBF24"/>
<path d="M108.762 90C107.723 90 106.788 89.8121 105.955 89.4363C105.129 89.0534 104.475 88.4897 103.991 87.7454C103.514 87.0011 103.275 86.0833 103.275 84.9922C103.275 84.0528 103.446 83.2759 103.788 82.6617C104.129 82.0475 104.595 81.5561 105.186 81.1875C105.777 80.819 106.442 80.5408 107.182 80.3529C107.93 80.1578 108.702 80.0169 109.499 79.9301C110.46 79.829 111.239 79.7386 111.837 79.6592C112.435 79.5724 112.869 79.4424 113.139 79.2689C113.417 79.0883 113.556 78.8101 113.556 78.4343V78.3693C113.556 77.5527 113.317 76.9204 112.84 76.4724C112.364 76.0243 111.677 75.8003 110.78 75.8003C109.834 75.8003 109.083 76.0099 108.528 76.429C107.98 76.8481 107.61 77.3431 107.417 77.914L103.809 77.3937C104.094 76.382 104.563 75.5366 105.218 74.8573C105.873 74.1708 106.674 73.6577 107.62 73.3181C108.567 72.9712 109.613 72.7978 110.759 72.7978C111.549 72.7978 112.335 72.8917 113.118 73.0796C113.901 73.2675 114.616 73.5782 115.264 74.0118C115.911 74.4382 116.431 75.0199 116.822 75.757C117.221 76.494 117.42 77.4154 117.42 78.521V89.664H113.705V87.3769H113.577C113.342 87.8393 113.011 88.2729 112.584 88.6776C112.164 89.075 111.634 89.3966 110.994 89.6423C110.36 89.8808 109.616 90 108.762 90ZM109.766 87.1167C110.542 87.1167 111.214 86.9613 111.784 86.6506C112.353 86.3327 112.791 85.9135 113.097 85.3932C113.41 84.8729 113.566 84.3057 113.566 83.6914V81.7295C113.445 81.8307 113.239 81.9246 112.947 82.0113C112.663 82.098 112.342 82.1739 111.986 82.239C111.631 82.304 111.278 82.3618 110.93 82.4124C110.581 82.463 110.278 82.5063 110.022 82.5424C109.446 82.6219 108.93 82.752 108.474 82.9327C108.019 83.1133 107.659 83.3663 107.396 83.6914C107.133 84.0094 107.001 84.4213 107.001 84.9271C107.001 85.6498 107.261 86.1954 107.78 86.5639C108.3 86.9324 108.962 87.1167 109.766 87.1167Z" fill="#FBBF24"/>
<path d="M125.43 84.4394L125.419 79.7025H126.039L131.931 73.0146H136.447L129.199 81.2092H128.398L125.43 84.4394ZM121.907 89.664V67.4648H125.772V89.664H121.907ZM132.198 89.664L126.861 82.0872L129.465 79.3231L136.821 89.664H132.198Z" fill="#FBBF24"/>
<path d="M144.342 90C143.303 90 142.367 89.8121 141.535 89.4363C140.709 89.0534 140.054 88.4897 139.57 87.7454C139.094 87.0011 138.855 86.0833 138.855 84.9922C138.855 84.0528 139.026 83.2759 139.368 82.6617C139.709 82.0475 140.175 81.5561 140.766 81.1875C141.357 80.819 142.022 80.5408 142.762 80.3529C143.51 80.1578 144.282 80.0169 145.079 79.9301C146.04 79.829 146.819 79.7386 147.417 79.6592C148.015 79.5724 148.449 79.4424 148.719 79.2689C148.997 79.0883 149.136 78.8101 149.136 78.4343V78.3693C149.136 77.5527 148.897 76.9204 148.42 76.4724C147.943 76.0243 147.257 75.8003 146.36 75.8003C145.413 75.8003 144.663 76.0099 144.107 76.429C143.559 76.8481 143.189 77.3431 142.997 77.914L139.389 77.3937C139.674 76.382 140.143 75.5366 140.798 74.8573C141.453 74.1708 142.253 73.6577 143.2 73.3181C144.147 72.9712 145.193 72.7978 146.339 72.7978C147.129 72.7978 147.915 72.8917 148.698 73.0796C149.481 73.2675 150.196 73.5782 150.844 74.0118C151.491 74.4382 152.011 75.0199 152.402 75.757C152.801 76.494 153 77.4154 153 78.521V89.664H149.285V87.3769H149.157C148.922 87.8393 148.591 88.2729 148.164 88.6776C147.744 89.075 147.214 89.3966 146.573 89.6423C145.94 89.8808 145.196 90 144.342 90ZM145.346 87.1167C146.121 87.1167 146.794 86.9613 147.363 86.6506C147.933 86.3327 148.37 85.9135 148.676 85.3932C148.99 84.8729 149.146 84.3057 149.146 83.6914V81.7295C149.025 81.8307 148.819 81.9246 148.527 82.0113C148.242 82.098 147.922 82.1739 147.566 82.239C147.21 82.304 146.858 82.3618 146.509 82.4124C146.161 82.463 145.858 82.5063 145.602 82.5424C145.025 82.6219 144.51 82.752 144.054 82.9327C143.599 83.1133 143.239 83.3663 142.976 83.6914C142.712 84.0094 142.581 84.4213 142.581 84.9271C142.581 85.6498 142.841 86.1954 143.36 86.5639C143.88 86.9324 144.542 87.1167 145.346 87.1167Z" fill="#FBBF24"/>
<path d="M58.1184 17.3932H95.7896V28.2715H58.1184V17.3932Z" fill="#7D5B02"/>
<path d="M95.5062 6.21583C96.4476 6.47533 97.0042 7.47109 96.7494 8.43992L85.5214 51.1351C85.2666 52.104 84.2969 52.679 83.3555 52.4195L61.0324 46.2659C60.0911 46.0064 59.5345 45.0107 59.7892 44.0419L71.0173 1.34665C71.272 0.377819 72.2417 -0.197212 73.1831 0.0622864L95.5062 6.21583Z" fill="#EB8031"/>
<path d="M92.4842 5.38275L80.3314 51.5946L76.679 50.5878L88.8318 4.37595L92.4842 5.38275Z" fill="#081208"/>
<path d="M89.401 1.99569C90.381 2.03172 91.1468 2.87558 91.1116 3.88048L89.5579 48.1653C89.5226 49.1702 88.6996 49.9557 87.7196 49.9196L64.4812 49.065C63.5013 49.029 62.7354 48.1851 62.7707 47.1802L64.3243 2.89538C64.3596 1.89047 65.1826 1.10505 66.1626 1.14109L89.401 1.99569Z" fill="#5386E4"/>
<path d="M86.255 1.87996L84.5734 49.8124L80.7713 49.6726L82.453 1.74014L86.255 1.87996Z" fill="#081208"/>
<path d="M82.7057 4.62441C83.6646 4.44429 84.5853 5.09828 84.7622 6.08515L92.5558 49.5749C92.7326 50.5618 92.0986 51.5078 91.1398 51.6879L68.4012 55.9592C67.4423 56.1393 66.5216 55.4853 66.3448 54.4985L58.5512 11.0087C58.3743 10.0219 59.0083 9.07582 59.9672 8.8957L82.7057 4.62441Z" fill="#80387D"/>
<path d="M79.6275 5.20262L88.063 52.2744L84.3427 52.9733L75.9071 5.90146L79.6275 5.20262Z" fill="#081208"/>
<path d="M55.4621 19.4518H77.3822V60.4119L59.894 52.8085L55.4621 19.4518Z" fill="#FBBF24"/>
<path d="M99.3023 19.4518H77.3822V60.4119L94.8703 52.8085L99.3023 19.4518Z" fill="#F9BB19"/>
<path d="M77.5763 57.8115L77.6235 57.9252L77.3987 58.0228L77.3829 58.0293L77.3735 58.0524L77.3563 58.045L77.3718 58.0073L77.3516 57.958L77.3311 58.0073L77.3469 58.045L77.3296 58.0524L77.32 58.0293L77.3046 58.0228L77.0797 57.9252L77.1268 57.8115L77.1738 57.6975L77.3516 57.7743L77.5294 57.6975L77.5763 57.8115ZM76.7243 57.5029L76.6302 57.7306L76.1807 57.536L76.2279 57.4221L76.2748 57.3081L76.7243 57.5029ZM78.4753 57.4221L78.5224 57.536L78.0729 57.7306L77.9789 57.5029L78.4283 57.3081L78.4753 57.4221ZM75.8253 57.1135L75.7784 57.2275L75.7312 57.3412L75.2818 57.1466L75.3289 57.0326L75.3758 56.9189L75.8253 57.1135ZM79.3742 57.0326L79.4214 57.1466L78.9719 57.3412L78.9247 57.2275L78.8778 57.1135L79.3273 56.9189L79.3742 57.0326ZM74.9264 56.724L74.8794 56.838L74.8323 56.9517L74.3828 56.7571L74.43 56.6432L74.4769 56.5295L74.9264 56.724ZM80.3203 56.7571L79.8709 56.9517L79.8237 56.838L79.7768 56.724L80.2262 56.5295L80.3203 56.7571ZM74.0274 56.3346L73.9805 56.4486L73.9333 56.5625L73.4838 56.3677L73.531 56.254L73.5779 56.14L74.0274 56.3346ZM81.1721 56.254L81.2193 56.3677L80.7698 56.5625L80.7226 56.4486L80.6757 56.3346L81.1252 56.14L81.1721 56.254ZM73.1285 55.9454L73.0815 56.0591L73.0344 56.1731L72.5849 55.9782L72.6321 55.8645L72.679 55.7506L73.1285 55.9454ZM82.0711 55.8645L82.1182 55.9782L81.6688 56.1731L81.6216 56.0591L81.5747 55.9454L82.0241 55.7506L82.0711 55.8645ZM72.2295 55.556L72.1826 55.6697L72.1354 55.7836L71.6859 55.5888L71.7329 55.4751L71.78 55.3611L72.2295 55.556ZM82.9703 55.4751L83.0172 55.5888L82.5677 55.7836L82.5208 55.6697L82.4736 55.556L82.9231 55.3611L82.9703 55.4751ZM71.3306 55.1665L71.2834 55.2805L71.2365 55.3942L70.787 55.1996L70.8339 55.0856L70.8811 54.9719L71.3306 55.1665ZM83.8692 55.0856L83.9161 55.1996L83.4667 55.3942L83.4197 55.2805L83.3726 55.1665L83.8221 54.9719L83.8692 55.0856ZM70.4316 54.7771L70.3844 54.891L70.3375 55.0048L69.888 54.8102L69.935 54.6962L69.9821 54.5825L70.4316 54.7771ZM84.7682 54.6962L84.8151 54.8102L84.3656 55.0048L84.3187 54.891L84.2715 54.7771L84.721 54.5825L84.7682 54.6962ZM69.5327 54.3876L69.4855 54.5016L69.4386 54.6153L68.9891 54.4207L69.036 54.307L69.0832 54.193L69.5327 54.3876ZM85.7141 54.4207L85.2646 54.6153L85.1705 54.3876L85.62 54.193L85.7141 54.4207ZM68.6337 53.9984L68.5865 54.1122L68.5396 54.2261L68.0901 54.0313L68.1371 53.9176L68.1842 53.8036L68.6337 53.9984ZM86.5661 53.9176L86.613 54.0313L86.1635 54.2261L86.1166 54.1122L86.0694 53.9984L86.5189 53.8036L86.5661 53.9176ZM67.7347 53.609L67.6876 53.7227L67.6407 53.8367L67.1912 53.6418L67.2381 53.5281L67.2853 53.4142L67.7347 53.609ZM87.512 53.6418L87.0625 53.8367L87.0156 53.7227L86.9684 53.609L87.4179 53.4142L87.512 53.6418ZM66.8358 53.2196L66.7417 53.4472L66.292 53.2526L66.3861 53.025L66.8358 53.2196ZM88.4111 53.2526L87.9617 53.4472L87.9145 53.3335L87.8676 53.2196L88.3171 53.025L88.4111 53.2526ZM65.9366 52.8301L65.8897 52.9441L65.8425 53.0578L65.393 52.8632L65.4402 52.7492L65.4871 52.6355L65.9366 52.8301ZM89.2629 52.7492L89.3101 52.8632L88.8606 53.0578L88.8135 52.9441L88.7665 52.8301L89.216 52.6355L89.2629 52.7492ZM65.0376 52.4407L64.9907 52.5546L64.9436 52.6684L64.4941 52.4738L64.5412 52.36L64.5882 52.2461L65.0376 52.4407ZM90.1619 52.36L90.2091 52.4738L89.7596 52.6684L89.7124 52.5546L89.6655 52.4407L90.115 52.2461L90.1619 52.36ZM64.1387 52.0515L64.0918 52.1652L64.0446 52.2792L63.5951 52.0843L63.6423 51.9706L63.6892 51.8566L64.1387 52.0515ZM91.0609 51.9706L91.108 52.0843L90.6585 52.2792L90.5644 52.0515L91.0139 51.8566L91.0609 51.9706ZM63.2397 51.662L63.1456 51.8897L62.6962 51.6949L62.7433 51.5812L62.7903 51.4672L63.2397 51.662ZM91.9598 51.5812L92.007 51.6949L91.5575 51.8897L91.5103 51.7758L91.4634 51.662L91.9129 51.4672L91.9598 51.5812ZM62.1792 51.2026L62.3408 51.2726L62.2939 51.3863L62.2467 51.5003L62.022 51.403L62.009 51.3974L62.0274 51.3528L61.9948 51.3573L61.9833 51.3861L61.9703 51.3805L61.9788 51.3598L61.9571 51.3629L61.9552 51.3487L61.9852 51.3443L61.9979 51.3134L61.9512 51.3202L61.9493 51.3059L61.9158 51.0563L62.155 51.0225L62.1792 51.2026ZM92.7875 51.0543L92.7538 51.3059L92.7519 51.3202L92.705 51.3134L92.7177 51.3443L92.7479 51.3487L92.746 51.3629L92.7241 51.3598L92.7328 51.3805L92.7199 51.3861L92.7081 51.3573L92.6755 51.3528L92.6942 51.3974L92.6812 51.403L92.4565 51.5003L92.4093 51.3866L92.3624 51.2726L92.5237 51.2026L92.5484 51.0205L92.7875 51.0543ZM62.0139 51.3112L62.0012 51.3419L62.0337 51.3375L62.0465 51.3066L62.0139 51.3112ZM92.6692 51.3375L92.7017 51.3419L92.689 51.3112L92.6564 51.3066L92.6692 51.3375ZM62.0877 50.5232L61.8484 50.557L61.7812 50.0577L62.0205 50.0239L62.0877 50.5232ZM92.9231 50.048L92.8555 50.5512L92.6161 50.5174L92.684 50.0142L92.9231 50.048ZM61.9531 49.5246L61.714 49.5584L61.6468 49.0588L61.8859 49.025L61.9531 49.5246ZM93.0587 49.0417L92.9911 49.5449L92.7517 49.5111L92.8196 49.0079L93.0587 49.0417ZM61.8187 48.5257L61.5793 48.5595L61.5121 48.0602L61.7515 48.0264L61.8187 48.5257ZM93.1943 48.0354L93.1266 48.5385L92.8873 48.5047L92.9552 48.0016L93.1943 48.0354ZM61.684 47.5271L61.4449 47.561L61.3777 47.0617L61.6168 47.0279L61.684 47.5271ZM93.3299 47.0291L93.2623 47.5322L93.0229 47.4984L93.0908 46.9953L93.3299 47.0291ZM61.5496 46.5283L61.3102 46.5621L61.243 46.0628L61.4822 46.029L61.5496 46.5283ZM93.4655 46.0227L93.3976 46.5259L93.1585 46.4921L93.2262 45.9889L93.4655 46.0227ZM61.4149 45.5297L61.1758 45.5635L61.1084 45.0642L61.3477 45.0304L61.4149 45.5297ZM93.4816 44.9995L93.6011 45.0164L93.5332 45.5196L93.2941 45.4858L93.3618 44.9829L93.4816 44.9995ZM61.2805 44.5311L61.0412 44.5649L60.974 44.0654L61.2131 44.0316L61.2805 44.5311ZM93.6169 43.9932L93.7367 44.0101L93.6688 44.5133L93.5492 44.4964L93.4297 44.4797L93.4974 43.9765L93.6169 43.9932ZM77.2686 43.4693L77.2223 43.5835L77.1764 43.6977L76.9504 43.6021L76.9964 43.4879L77.0426 43.3734L77.2686 43.4693ZM77.6166 43.6018L77.3905 43.6977L77.3445 43.5835L77.2983 43.4693L77.5242 43.3734L77.6166 43.6018ZM61.1459 43.5323L60.9067 43.5661L60.8393 43.0668L61.0787 43.033L61.1459 43.5323ZM93.7525 42.9871L93.8723 43.0038L93.8044 43.5069L93.6848 43.4903L93.5653 43.4734L93.633 42.9702L93.7525 42.9871ZM76.5908 43.1822L76.4984 43.4106L76.0465 43.2192L76.139 42.9907L76.5908 43.1822ZM78.4748 43.1047L78.5208 43.2189L78.0687 43.4104L78.0225 43.2962L77.9765 43.182L78.4286 42.9905L78.4748 43.1047ZM75.6869 42.7993L75.6409 42.9135L75.5947 43.0277L75.1429 42.8362L75.1888 42.722L75.2351 42.6078L75.6869 42.7993ZM79.4252 42.8357L78.9731 43.0272L78.8806 42.7988L79.3327 42.6073L79.4252 42.8357ZM74.7832 42.4164L74.737 42.5306L74.691 42.6448L74.239 42.4533L74.3314 42.2249L74.7832 42.4164ZM80.2833 42.3384L80.3293 42.4526L79.8772 42.6443L79.831 42.5301L79.785 42.4159L80.2371 42.2242L80.2833 42.3384ZM61.0115 42.5337L60.7721 42.5675L60.7049 42.0682L60.944 42.0344L61.0115 42.5337ZM94.0077 41.9977L93.94 42.5006L93.8204 42.484L93.7009 42.4671L93.7686 41.9639L94.0077 41.9977ZM73.8796 42.0334L73.7871 42.2618L73.3353 42.0704L73.3815 41.9562L73.4275 41.842L73.8796 42.0334ZM81.2337 42.0697L80.7816 42.2611L80.6892 42.0327L81.1412 41.8413L81.2337 42.0697ZM72.9757 41.6505L72.9294 41.7647L72.8835 41.8789L72.4314 41.6875L72.5238 41.4591L72.9757 41.6505ZM82.0916 41.5723L82.1378 41.6865L81.6857 41.878L81.5933 41.6496L82.0456 41.4581L82.0916 41.5723ZM60.8768 41.5349L60.6377 41.5687L60.5702 41.0694L60.8096 41.0356L60.8768 41.5349ZM72.072 41.2676L71.9795 41.4962L71.5277 41.3048L71.6201 41.0761L72.072 41.2676ZM83.0422 41.3033L82.5899 41.495L82.5439 41.3808L82.4977 41.2666L82.9498 41.0749L83.0422 41.3033ZM94.1433 40.9914L94.0756 41.4945L93.8362 41.4607L93.9042 40.9576L94.1433 40.9914ZM77.4626 40.9332L77.419 41.0486L77.3756 41.1638L77.1464 41.0735L77.19 40.9581L77.2334 40.8427L77.4626 40.9332ZM77.815 41.0735L77.5862 41.1638L77.5428 41.0486L77.4992 40.9332L77.7282 40.8429L77.815 41.0735ZM71.1681 40.8849L71.1221 40.9991L71.0759 41.1133L70.624 40.9219L70.67 40.8077L70.7162 40.6935L71.1681 40.8849ZM83.9463 40.9204L83.4943 41.1119L83.4018 40.8835L83.8539 40.692L83.9463 40.9204ZM78.7307 40.712L78.2729 40.8929L78.2293 40.7775L78.1859 40.6621L78.6439 40.4815L78.7307 40.712ZM76.775 40.6618L76.6882 40.8924L76.23 40.7116L76.3168 40.481L76.775 40.6618ZM70.2644 40.502L70.172 40.7304L69.7201 40.5389L69.8126 40.3105L70.2644 40.502ZM84.8045 40.423L84.8505 40.5372L84.3984 40.7287L84.3522 40.6145L84.3062 40.5003L84.7583 40.3088L84.8045 40.423ZM60.7421 40.5363L60.503 40.5701L60.4358 40.0708L60.6749 40.037L60.7421 40.5363ZM79.6461 40.3506L79.1884 40.5314L79.1016 40.3006L79.5593 40.12L79.6461 40.3506ZM75.8586 40.3002L75.8152 40.4153L75.7716 40.5307L75.3134 40.3499L75.4001 40.1191L75.8586 40.3002ZM94.2789 39.9851L94.2112 40.4882L93.9718 40.4544L94.0398 39.9513L94.2789 39.9851ZM69.3607 40.1191L69.2683 40.3475L68.8165 40.156L68.8627 40.0418L68.9087 39.9276L69.3607 40.1191ZM85.7549 40.1541L85.3028 40.3458L85.2103 40.1174L85.6624 39.9257L85.7549 40.1541ZM80.5618 39.9892L80.1041 40.17L80.0607 40.0546L80.0171 39.9392L80.475 39.7586L80.5618 39.9892ZM74.9419 39.9382L74.8552 40.1688L74.3967 39.988L74.4401 39.8726L74.4837 39.7574L74.9419 39.9382ZM68.4568 39.7361L68.4106 39.8503L68.3646 39.9646L67.9126 39.7731L68.005 39.5447L68.4568 39.7361ZM86.613 39.657L86.659 39.7712L86.2069 39.9626L86.1607 39.8484L86.1147 39.7342L86.5668 39.5428L86.613 39.657ZM81.4339 39.5126L81.4775 39.628L81.0195 39.8086L80.9328 39.578L81.3905 39.3972L81.4339 39.5126ZM74.0253 39.5763L73.9385 39.8071L73.4803 39.6263L73.5671 39.3955L74.0253 39.5763ZM67.5532 39.3532L67.4607 39.5816L67.0089 39.3904L67.0551 39.276L67.1011 39.1618L67.5532 39.3532ZM87.5634 39.388L87.1111 39.5795L87.0651 39.4653L87.0189 39.3511L87.4709 39.1596L87.5634 39.388ZM60.6077 39.5377L60.3686 39.5715L60.3012 39.0719L60.5405 39.0381L60.6077 39.5377ZM94.4145 38.9788L94.3468 39.4819L94.1074 39.4481L94.1754 38.945L94.4145 38.9788ZM82.393 39.2666L81.9352 39.4471L81.8919 39.3317L81.8482 39.2166L82.3062 39.0357L82.393 39.2666ZM73.1089 39.2146L73.0653 39.33L73.0219 39.4452L72.5637 39.2644L72.6505 39.0338L73.1089 39.2146ZM66.6493 38.9703L66.6033 39.0845L66.557 39.1989L66.1052 39.0075L66.1512 38.8933L66.1974 38.7788L66.6493 38.9703ZM88.4213 38.8906L88.4675 39.0051L88.0154 39.1965L87.923 38.9681L88.3753 38.7764L88.4213 38.8906ZM83.265 38.7897L83.3087 38.9051L82.8507 39.0857L82.7639 38.8551L83.2217 38.6743L83.265 38.7897ZM72.1923 38.8527L72.1489 38.9681L72.1052 39.0835L71.647 38.9027L71.7338 38.6719L72.1923 38.8527ZM65.7456 38.5876L65.6531 38.816L65.2013 38.6246L65.2937 38.3962L65.7456 38.5876ZM89.3719 38.6219L88.9196 38.8134L88.8736 38.6992L88.8274 38.585L89.2795 38.3935L89.3719 38.6219ZM84.2241 38.5437L83.7664 38.7243L83.723 38.6091L83.6794 38.4937L84.1373 38.3129L84.2241 38.5437ZM71.2756 38.491L71.1888 38.7216L70.7304 38.5408L70.7738 38.4254L70.8174 38.3102L71.2756 38.491ZM60.4731 38.5389L60.234 38.5727L60.1667 38.0734L60.4059 38.0396L60.4731 38.5389ZM94.5501 37.9724L94.4824 38.4756L94.243 38.4418L94.311 37.9386L94.5501 37.9724ZM64.8417 38.2047L64.7957 38.3189L64.7495 38.4331L64.2976 38.2416L64.3436 38.1274L64.3898 38.0132L64.8417 38.2047ZM90.276 38.2387L89.824 38.4304L89.7315 38.2018L90.1836 38.0103L90.276 38.2387ZM85.0962 38.0668L85.1398 38.1822L84.6819 38.3628L84.5951 38.1323L85.0528 37.9517L85.0962 38.0668ZM70.359 38.1291L70.2722 38.3599L69.814 38.1791L69.9008 37.9483L70.359 38.1291ZM63.938 37.8218L63.8918 37.936L63.8458 38.0502L63.3937 37.8587L63.4862 37.6303L63.938 37.8218ZM91.1342 37.7414L91.1802 37.8558L90.7281 38.0473L90.6819 37.9331L90.6359 37.8189L91.088 37.6272L91.1342 37.7414ZM86.0553 37.8208L85.5976 38.0017L85.5108 37.7708L85.9685 37.5902L86.0553 37.8208ZM69.4426 37.7675L69.3989 37.8829L69.3555 37.998L68.8973 37.8172L68.9841 37.5866L69.4426 37.7675ZM63.0343 37.4389L62.9419 37.6673L62.4901 37.4758L62.5363 37.3616L62.5823 37.2474L63.0343 37.4389ZM92.0846 37.4727L91.6325 37.6641L91.54 37.4357L91.9921 37.2443L92.0846 37.4727ZM86.9276 37.3442L86.971 37.4594L86.513 37.6402L86.4262 37.4094L86.884 37.2288L86.9276 37.3442ZM68.5259 37.4055L68.4825 37.5209L68.4389 37.6363L67.9807 37.4555L68.0675 37.2247L68.5259 37.4055ZM60.3387 37.5403L60.0993 37.5741L60.0321 37.0748L60.2714 37.041L60.3387 37.5403ZM94.6857 36.9661L94.6178 37.4693L94.3786 37.4355L94.4466 36.9323L94.6857 36.9661ZM62.1304 37.0559L62.0842 37.1701L62.0382 37.2843L61.5862 37.0931L61.6786 36.8645L62.1304 37.0559ZM92.9425 36.9753L92.9887 37.0895L92.5366 37.2812L92.4904 37.1668L92.4444 37.0526L92.8965 36.8611L92.9425 36.9753ZM87.8864 37.0979L87.4287 37.2788L87.3419 37.048L87.7997 36.8674L87.8864 37.0979ZM67.6093 37.0439L67.5225 37.2744L67.0641 37.0936L67.1075 36.9782L67.1511 36.863L67.6093 37.0439ZM88.7588 36.6213L88.8022 36.7365L88.3442 36.9173L88.2574 36.6865L88.7151 36.5059L88.7588 36.6213ZM66.6926 36.6819L66.6059 36.9128L66.1477 36.7319L66.2344 36.5011L66.6926 36.6819ZM61.2268 36.673L61.1343 36.9017L60.6825 36.7102L60.7749 36.4818L61.2268 36.673ZM93.8931 36.7066L93.4408 36.898L93.3948 36.7838L93.3486 36.6696L93.8006 36.4779L93.8931 36.7066ZM60.1608 36.2215L60.3229 36.2903L60.2769 36.4045L60.2306 36.5187L60.199 36.5052L60.204 36.5414L59.9649 36.5752L59.8991 36.0875L60.0189 36.0709L60.1384 36.054L60.1608 36.2215ZM89.7176 36.3753L89.2599 36.5559L89.1731 36.3253L89.6308 36.1445L89.7176 36.3753ZM65.7762 36.3203L65.7326 36.4357L65.6892 36.5508L65.231 36.37L65.3178 36.1394L65.7762 36.3203ZM94.8213 35.9598L94.7534 36.463L94.6338 36.4461L94.5392 36.4325L94.3451 36.5149L94.2527 36.2865L94.4789 36.1906L94.5251 36.3048L94.5293 36.3157L94.5819 35.926L94.8213 35.9598ZM90.5899 35.8985L90.6333 36.0139L90.1756 36.1945L90.132 36.0791L90.0886 35.9639L90.5463 35.7831L90.5899 35.8985ZM64.8596 35.9584L64.8162 36.0738L64.7726 36.1892L64.3144 36.0083L64.4012 35.7775L64.8596 35.9584ZM91.5488 35.6524L91.091 35.833L91.0042 35.6025L91.462 35.4216L91.5488 35.6524ZM63.943 35.5967L63.8562 35.8272L63.3977 35.6464L63.4414 35.531L63.4848 35.4158L63.943 35.5967ZM60.0743 35.5778L59.8349 35.6116L59.7708 35.1358L60.0102 35.102L60.0743 35.5778ZM92.4645 35.291L92.0067 35.4716L91.9631 35.3564L91.9197 35.241L92.3777 35.0602L92.4645 35.291ZM63.0263 35.2348L62.9395 35.4656L62.4813 35.2847L62.5681 35.0539L63.0263 35.2348ZM94.9569 34.9535L94.889 35.4566L94.6498 35.4228L94.7175 34.9197L94.9569 34.9535ZM93.3799 34.9296L92.9222 35.1102L92.8354 34.8796L93.2931 34.699L93.3799 34.9296ZM62.1099 34.8731L62.0663 34.9885L62.0229 35.1037L61.5647 34.9228L61.6515 34.6922L62.1099 34.8731ZM94.2956 34.5681L93.8379 34.749L93.7943 34.6336L93.7509 34.5182L94.2088 34.3376L94.2956 34.5681ZM61.1933 34.5112L61.1499 34.6266L61.1063 34.742L60.6481 34.5611L60.7348 34.3303L61.1933 34.5112ZM59.946 34.6258L59.7069 34.6596L59.6427 34.1838L59.8819 34.15L59.946 34.6258ZM95.0925 33.9455L95.0246 34.4503L94.7854 34.4165L94.7913 34.3723L94.7534 34.3875L94.6666 34.1567L94.8288 34.0925L94.8533 33.9117L95.0925 33.9455ZM60.2766 34.1495L60.1898 34.3801L59.9606 34.2898L60.0474 34.0589L60.2766 34.1495ZM59.8177 33.6741L59.5786 33.7079L59.5145 33.2318L59.7536 33.198L59.8177 33.6741ZM95.229 32.9329L95.1609 33.4392L94.9215 33.4054L94.9899 32.8991L95.229 32.9329ZM59.6894 32.7221L59.4503 32.7559L59.3862 32.2798L59.6253 32.246L59.6894 32.7221ZM95.3656 31.92L95.2972 32.4266L95.058 32.3928L95.1262 31.8862L95.3656 31.92ZM59.5611 31.7701L59.322 31.8039L59.2579 31.328L59.4972 31.2942L59.5611 31.7701ZM95.5019 30.9074L95.4337 31.4137L95.1943 31.3799L95.2627 30.8736L95.5019 30.9074ZM59.4331 30.8181L59.1937 30.8519L59.1296 30.376L59.369 30.3422L59.4331 30.8181ZM95.6384 29.8948L95.57 30.4011L95.3309 30.3673L95.399 29.861L95.6384 29.8948ZM59.3048 29.8664L59.1852 29.883L59.0655 29.8999L59.0015 29.424L59.2407 29.3902L59.3048 29.8664ZM95.7747 28.882L95.7065 29.3885L95.4672 29.3547L95.5356 28.8482L95.7747 28.882ZM59.1765 28.9144L58.9374 28.9482L58.8733 28.472L59.1124 28.4382L59.1765 28.9144ZM95.9112 27.8694L95.8429 28.3757L95.6037 28.3419L95.6719 27.8356L95.9112 27.8694ZM59.0482 27.9624L58.8091 27.9962L58.745 27.52L58.8645 27.5031L58.9841 27.4865L59.0482 27.9624ZM96.0475 26.8568L95.9794 27.3631L95.7403 27.3293L95.8084 26.823L96.0475 26.8568ZM58.9199 27.0104L58.6808 27.0442L58.6167 26.5683L58.8558 26.5345L58.9199 27.0104ZM96.1841 25.844L96.1157 26.3503L95.9961 26.3336L95.8766 26.3167L95.9447 25.8102L96.1841 25.844ZM58.7917 26.0584L58.5525 26.0922L58.4884 25.6163L58.7278 25.5825L58.7917 26.0584ZM96.3204 24.8314L96.2522 25.3377L96.0131 25.3039L96.0813 24.7976L96.3204 24.8314ZM58.6636 25.1066L58.5438 25.1235L58.4243 25.1402L58.3601 24.6643L58.5995 24.6305L58.6636 25.1066ZM96.4569 23.8188L96.3888 24.3251L96.1494 24.2913L96.2176 23.785L96.4569 23.8188ZM58.5353 24.1546L58.296 24.1884L58.2321 23.7123L58.4712 23.6785L58.5353 24.1546ZM96.5932 22.8059L96.5251 23.3122L96.286 23.2784L96.3541 22.7721L96.5932 22.8059ZM58.407 23.2026L58.1679 23.2364L58.1038 22.7606L58.3429 22.7268L58.407 23.2026ZM96.4763 21.8187V22.0155L96.6956 22.0464L96.6616 22.2997L96.4223 22.2658L96.4494 22.0659H96.2374V21.8187H96.4763ZM58.4658 21.8187V22.0659H58.2537L58.2787 22.2506L58.0396 22.2844L58.0076 22.0464L58.2269 22.0155V21.8187H58.4658ZM59.422 21.8187V22.0659H58.944V21.8187H59.422ZM60.3783 21.8187V22.0659H59.9003V21.8187H60.3783ZM61.3345 21.8187V22.0659H60.8565V21.8187H61.3345ZM62.2908 21.8187V22.0659H61.8128V21.8187H62.2908ZM63.2471 21.8187V22.0659H62.7688V21.8187H63.2471ZM64.2033 21.8187V22.0659H63.7251V21.8187H64.2033ZM65.1596 21.8187V22.0659H64.6813V21.8187H65.1596ZM66.1158 21.8187V22.0659H65.6376V21.8187H66.1158ZM67.0721 21.8187V22.0659H66.5938V21.8187H67.0721ZM68.0283 21.8187V22.0659H67.5501V21.8187H68.0283ZM68.9844 21.8187V22.0659H68.5064V21.8187H68.9844ZM69.9406 21.8187V22.0659H69.4626V21.8187H69.9406ZM70.8969 21.8187V22.0659H70.4189V21.8187H70.8969ZM71.8531 21.8187V22.0659H71.3751V21.8187H71.8531ZM72.8094 21.8187V22.0659H72.3314V21.8187H72.8094ZM73.7657 21.8187V22.0659H73.2877V21.8187H73.7657ZM74.7219 21.8187V22.0659H74.2439V21.8187H74.7219ZM75.6782 21.8187V22.0659H75.1999V21.8187H75.6782ZM76.6344 21.8187V22.0659H76.1562V21.8187H76.6344ZM77.5907 21.8187V22.0659H77.1124V21.8187H77.5907ZM78.547 21.8187V22.0659H78.0687V21.8187H78.547ZM79.5032 21.8187V22.0659H79.025V21.8187H79.5032ZM80.4595 21.8187V22.0659H79.9812V21.8187H80.4595ZM81.4155 21.8187V22.0659H80.9375V21.8187H81.4155ZM82.3718 21.8187V22.0659H81.8937V21.8187H82.3718ZM83.328 21.8187V22.0659H82.85V21.8187H83.328ZM84.2843 21.8187V22.0659H83.8063V21.8187H84.2843ZM85.2405 21.8187V22.0659H84.7625V21.8187H85.2405ZM86.1968 21.8187V22.0659H85.7188V21.8187H86.1968ZM87.153 21.8187V22.0659H86.675V21.8187H87.153ZM88.1093 21.8187V22.0659H87.6311V21.8187H88.1093ZM89.0656 21.8187V22.0659H88.5873V21.8187H89.0656ZM90.0218 21.8187V22.0659H89.5436V21.8187H90.0218ZM90.9781 21.8187V22.0659H90.4998V21.8187H90.9781ZM91.9343 21.8187V22.0659H91.4561V21.8187H91.9343ZM92.8904 21.8187V22.0659H92.4123V21.8187H92.8904ZM93.8466 21.8187V22.0659H93.3686V21.8187H93.8466ZM94.8029 21.8187V22.0659H94.3249V21.8187H94.8029ZM95.7591 21.8187V22.0659H95.2811V21.8187H95.7591Z" fill="#38803A"/>
</svg>
